<svg width="11" height="11" viewBox="0 0 11 11" fill="none" xmlns="http://www.w3.org/2000/svg">
<path d="M2.40625 1.89062H8.59375V9.79688H2.40625V1.89062Z" fill="#3EA7FF"/>
<path d="M8.59375 1.20312H2.40625C2.2164 1.20312 2.0625 1.35703 2.0625 1.54688C2.0625 1.73672 2.2164 1.89062 2.40625 1.89062H8.59375C8.7836 1.89062 8.9375 1.73672 8.9375 1.54688C8.9375 1.35703 8.7836 1.20312 8.59375 1.20312Z" fill="#2B7CD4"/>
<path d="M8.59375 2.57812H2.40625C2.2164 2.57812 2.0625 2.73203 2.0625 2.92188C2.0625 3.11172 2.2164 3.26562 2.40625 3.26562H8.59375C8.7836 3.26562 8.9375 3.11172 8.9375 2.92188C8.9375 2.73203 8.7836 2.57812 8.59375 2.57812Z" fill="#2B7CD4"/>
<path d="M8.59375 9.79688H2.40625C2.2164 9.79688 2.0625 9.95078 2.0625 10.1406C2.0625 10.3305 2.2164 10.4844 2.40625 10.4844H8.59375C8.7836 10.4844 8.9375 10.3305 8.9375 10.1406C8.9375 9.95078 8.7836 9.79688 8.59375 9.79688Z" fill="#2B7CD4"/>
<path d="M8.59375 8.42188H2.40625C2.2164 8.42188 2.0625 8.57578 2.0625 8.76562C2.0625 8.95547 2.2164 9.10938 2.40625 9.10938H8.59375C8.7836 9.10938 8.9375 8.95547 8.9375 8.76562C8.9375 8.57578 8.7836 8.42188 8.59375 8.42188Z" fill="#2B7CD4"/>
<path d="M6.35938 6.1875C6.35938 5.71288 5.5 4.64062 5.5 4.64062C5.5 4.64062 4.64062 5.71288 4.64062 6.1875C4.64062 6.41542 4.73117 6.63401 4.89233 6.79517C5.05349 6.95633 5.27208 7.04688 5.5 7.04688C5.72792 7.04688 5.94651 6.95633 6.10767 6.79517C6.26883 6.63401 6.35938 6.41542 6.35938 6.1875Z" fill="#808080"/>
</svg>
