<svg width="11" height="11" viewBox="0 0 11 11" fill="none" xmlns="http://www.w3.org/2000/svg">
<path d="M3.01983 10.006C2.51493 9.43222 2.01006 8.83554 1.68875 8.1241C1.36747 7.36677 1.27566 6.4947 1.43632 5.66852C1.59697 4.84234 1.96415 4.06205 2.492 3.39652C2.44611 3.97027 2.65265 4.56694 3.04279 5.00299C2.81328 3.90142 3.18048 2.70804 3.91486 1.83597C4.64923 0.963898 5.65902 0.390133 6.71468 0C6.18685 0.550786 6.118 1.42286 6.32455 2.15725C6.53109 2.89163 6.96714 3.53422 7.35727 4.19975C7.7474 4.86527 8.1146 5.55376 8.13756 6.31109C8.3441 5.92095 8.57361 5.5308 8.7113 5.09477C8.849 4.65873 8.91785 4.19975 8.80311 3.7637C9.2162 4.26859 9.4457 4.77347 9.56044 5.41606C9.67518 6.05865 9.65224 6.72418 9.58339 7.36677C9.49159 8.07821 9.308 8.81258 8.91787 9.40926C8.45889 10.1207 7.72449 10.6256 6.92127 10.901C5.49837 11.1534 4.09844 10.9469 3.01983 10.006Z" fill="#F95236"/>
<path d="M4.76382 10.855C6.64566 11.5894 8.50456 9.36332 7.47184 7.64211C7.47184 7.61915 7.44888 7.61915 7.44888 7.59622C7.54068 8.53714 7.31118 9.22562 6.87514 9.61578C7.10464 9.06499 6.94398 8.4224 6.66859 7.87161C6.3932 7.34378 6.00306 6.86184 5.70471 6.35695C5.40636 5.82912 5.17689 5.23242 5.31458 4.63574C4.7638 5.04883 4.37366 5.66847 4.21301 6.33399C4.05236 6.99952 4.14416 7.73392 4.44251 8.35355C4.09827 8.10111 3.84583 7.68802 3.82288 7.25198C3.45568 7.68802 3.2262 8.26174 3.24913 8.83549C3.24915 9.73052 3.96057 10.5337 4.76382 10.855Z" fill="#FFD15C"/>
</svg>
