<svg width="19" height="16" viewBox="0 0 19 16" fill="none" xmlns="http://www.w3.org/2000/svg">
<g clip-path="url(#clip0)">
<path d="M1.92908 1.72363H6.25808C6.5416 1.72363 6.80347 1.8575 6.94494 2.07466L7.65744 2.93501C7.79891 3.15217 8.06082 3.28604 8.3443 3.28604H18.8888V13.1088C18.8888 13.6247 18.4157 14.0429 17.832 14.0429H1.84462C1.261 14.0429 0.787842 13.6247 0.787842 13.1088V4.37568C0.787842 3.65364 0.914044 2.9359 1.162 2.24792C1.25284 1.93916 1.56817 1.72363 1.92908 1.72363Z" fill="#F6C358"/>
<path d="M16.3487 3.12537H2.43506V8.32068H16.3487V3.12537Z" fill="#EBF0F3"/>
<path d="M18.0963 2.19067H13.7338C13.4236 2.19067 13.1419 2.35068 13.013 2.60009L12.2664 4.04421C12.1375 4.29363 11.8558 4.45363 11.5456 4.45363H0.787842V13.3423C0.787842 13.8581 1.261 14.2764 1.84462 14.2764H17.8321C18.4157 14.2764 18.8889 13.8581 18.8889 13.3423V2.89126C18.8889 2.50436 18.534 2.19067 18.0963 2.19067Z" fill="#FCD462"/>
</g>
<defs>
<clipPath id="clip0">
<rect width="18.101" height="16" fill="white" transform="translate(0.787842)"/>
</clipPath>
</defs>
</svg>
