<svg width="12" height="12" viewBox="0 0 12 12" fill="none" xmlns="http://www.w3.org/2000/svg">
<g clip-path="url(#clip0)">
<path d="M6.40195 0.150622C6.20112 -0.0502073 5.84964 -0.0502073 5.64881 0.150622C5.19693 0.652706 1.48145 5.17153 1.48145 7.48117C1.48145 9.99164 3.4898 12 6.00027 12C8.51074 12 10.5191 9.99164 10.5191 7.48117C10.5191 5.17153 6.80363 0.652706 6.40195 0.150622Z" fill="#FF9993"/>
<path d="M9.96681 5.52288C9.21367 5.72371 9.11325 6.47685 8.15928 6.47685C7.05468 6.47685 7.05469 5.47266 6.00029 5.47266C4.9459 5.47266 4.89568 6.47685 3.84128 6.47685C2.88732 6.47685 2.78689 5.72371 2.03375 5.52288C1.7325 6.12539 1.53167 6.7781 1.48145 7.48104C1.48145 7.63167 1.48145 7.83249 1.53165 7.98312C1.58185 7.98312 1.63207 7.98312 1.68227 7.98312C2.78687 7.98312 2.78687 8.98731 3.84126 8.98731C4.89565 8.98731 4.94585 7.98312 6.00025 7.98312C7.05464 7.98312 7.10484 8.98731 8.15923 8.98731C9.21363 8.98731 9.26387 7.98312 10.3183 7.98312C10.3685 7.98312 10.4187 7.98312 10.4689 7.98312C10.4689 7.83249 10.5191 7.63167 10.5191 7.48104C10.4689 6.7781 10.2681 6.12539 9.96681 5.52288Z" fill="#E54D44"/>
</g>
<defs>
<clipPath id="clip0">
<rect width="12" height="12" fill="white"/>
</clipPath>
</defs>
</svg>
