<svg width="12" height="12" viewBox="0 0 12 12" fill="none" xmlns="http://www.w3.org/2000/svg">
<path d="M9.98144 10.9999C9.55233 11.0298 9.13064 10.8765 8.82094 10.5779C8.31644 10.0389 8.37644 9.13344 8.43994 8.17494C8.46044 7.86493 8.48144 7.55094 8.48144 7.24944C8.48144 4.49945 7.54045 4.49945 7.23145 4.49945C7.09338 4.49945 6.98145 4.38751 6.98145 4.24944C6.98145 4.11137 7.09338 3.99943 7.23145 3.99943C8.98146 3.99943 8.98146 6.44544 8.98146 7.24944C8.98146 7.56193 8.96046 7.88645 8.93897 8.20794C8.88297 9.05495 8.82996 9.85543 9.18597 10.2359C9.40221 10.4319 9.69098 10.5277 9.98147 10.4999C10.1855 10.5149 10.3853 10.4359 10.524 10.2854C10.9635 9.77495 10.7605 8.41644 10.612 7.42445C10.5428 7.03606 10.4992 6.64356 10.4815 6.24945V4.74945C10.4815 4.67077 10.5185 4.59667 10.5815 4.54946C11.07 4.18646 11.0315 3.89947 10.997 3.66997C10.9881 3.6137 10.9829 3.55691 10.9815 3.49998C10.3906 2.44761 9.36239 1.7124 8.17549 1.49347C8.04087 1.46242 7.95694 1.3281 7.98799 1.19347C8.01907 1.05885 8.15337 0.974915 8.28799 1.00597C10.491 1.51297 11.4815 3.13897 11.4815 3.49998C11.483 3.53352 11.4867 3.56692 11.4925 3.59999C11.5939 4.08807 11.3924 4.58933 10.9815 4.87149V6.24999C11.0004 6.61888 11.0422 6.98626 11.1065 7.34999C11.278 8.49999 11.492 9.92748 10.9025 10.611C10.6702 10.8735 10.3315 11.0165 9.98144 10.9999Z" fill="#455A64"/>
<path d="M10.7312 5.0001C10.6649 5.00022 10.6012 4.97397 10.5542 4.92709C9.15824 3.53108 9.32774 2.80009 10.0543 2.0736C10.1536 1.97767 10.3118 1.98043 10.4078 2.07974C10.5013 2.17663 10.5013 2.33022 10.4078 2.42711C9.98427 2.8506 9.58475 3.25011 10.9078 4.57361C11.0055 4.67111 11.0057 4.8294 10.9082 4.92716C10.8612 4.97429 10.7973 5.00073 10.7308 5.00061L10.7312 5.0001Z" fill="#455A64"/>
<path d="M6.23145 0H2.23144C1.54109 0 0.981445 0.559641 0.981445 1.24999V10.75C0.981445 10.8881 1.09338 11 1.23145 11H7.23145C7.36952 11 7.48146 10.8881 7.48146 10.75V1.24999C7.48144 0.559641 6.9218 0 6.23145 0Z" fill="#2ECC71"/>
<path d="M2.23145 1H6.23146C6.36953 1 6.48147 1.11194 6.48147 1.25001V4.25001C6.48147 4.38808 6.36953 4.50002 6.23146 4.50002H2.23145C2.09338 4.50002 1.98145 4.38808 1.98145 4.25001V1.25001C1.98145 1.11191 2.09338 1 2.23145 1Z" fill="#CFD8DC"/>
<path d="M7.23145 10.5H1.23145C0.817234 10.5 0.481445 10.8358 0.481445 11.25V11.75C0.481445 11.8881 0.593383 12 0.731453 12H7.73146C7.86953 12 7.98147 11.8881 7.98147 11.75V11.25C7.98145 10.8358 7.64568 10.5 7.23145 10.5Z" fill="#455A64"/>
</svg>
