<svg id="Layer_1" data-name="Layer 1" xmlns="http://www.w3.org/2000/svg" xmlns:xlink="http://www.w3.org/1999/xlink" width="64" height="64" viewBox="0 0 64 64"><defs><style>.cls-1{fill:none;}.cls-2{clip-path:url(#clip-path);}.cls-3{fill:#273679;}.cls-4{clip-path:url(#clip-path-2);}.cls-5{fill:url(#linear-gradient);}.cls-6{fill:#f37d20;}.cls-7{fill:#0b1333;}.cls-8{fill:#488dca;}.cls-9{fill:#b72025;}.cls-10{fill:#61164f;}</style><clipPath id="clip-path"><rect class="cls-1" x="6" y="2" width="51.99" height="60"/></clipPath><clipPath id="clip-path-2"><polygon class="cls-1" points="32.05 26.12 37.13 29.05 32.05 31.98 26.98 29.05 32.05 26.12"/></clipPath><linearGradient id="linear-gradient" x1="-628.65" y1="-320.11" x2="-628.14" y2="-320.11" gradientTransform="matrix(-19.92, 0, 0, 19.92, -12486.37, 6405.81)" gradientUnits="userSpaceOnUse"><stop offset="0" stop-color="#104a81"/><stop offset="1" stop-color="#9abbce"/></linearGradient></defs><title>SEPAL WRM Logo</title><g id="Sepal_Logo" data-name="Sepal Logo"><g class="cls-2"><polygon class="cls-3" points="37.18 29.45 37.18 35 32.05 37.96 26.93 35 26.93 29.45 32.05 32.41 37.18 29.45"/><g class="cls-4"><rect class="cls-5" x="29.08" y="23.95" width="5.94" height="10.2" transform="translate(2.76 60.88) rotate(-89.56)"/></g><polygon class="cls-6" points="6 25.56 6 38.53 12.69 42.39 12.69 42.34 15.2 40.9 8.55 37.06 8.55 27.03 15.21 23.19 12.69 21.73 12.69 21.7 6 25.56"/><polygon class="cls-7" points="24.34 2 13.11 8.49 13.11 21.46 15.65 22.93 24.34 27.94 24.41 27.91 25.93 27.03 28.47 25.56 28.47 25.55 32 23.52 32 20.49 29.38 22 25.84 24.04 24.34 24.91 15.73 19.95 15.65 19.9 15.65 9.87 24.34 4.85 29.53 7.85 32 9.28 32 6.42 24.39 2.02 24.34 2"/><polygon class="cls-8" points="39.66 2 39.61 2.02 32 6.42 32 9.28 34.47 7.85 39.66 4.85 48.34 9.87 48.34 19.9 48.27 19.95 39.66 24.91 38.16 24.04 34.63 22 32 20.49 32 23.52 35.53 25.55 35.53 25.56 38.08 27.03 39.59 27.91 39.66 27.94 48.34 22.93 50.89 21.46 50.89 8.49 39.66 2"/><polygon class="cls-9" points="13.11 42.55 13.11 55.52 24.34 62 32 57.58 32 54.64 29.45 56.11 24.34 59.06 15.66 54.04 15.66 44.02 24.34 39 29.46 41.96 32 43.42 32 40.48 24.34 36.06 13.11 42.55"/><polygon class="cls-10" points="32 40.48 32 43.42 34.54 41.96 39.66 39 48.34 44.02 48.34 54.04 39.66 59.06 34.55 56.11 32 54.64 32 57.58 39.66 62 50.89 55.52 50.89 42.55 39.66 36.06 32 40.48"/><polygon class="cls-6" points="51.31 21.73 48.79 23.19 55.45 27.03 55.45 37.06 48.8 40.9 51.31 42.34 51.31 42.39 58 38.53 58 25.56 51.31 21.7 51.31 21.73"/></g></g></svg>